<?xml version="1.0" encoding="utf-8"?>
<!-- Generator: Adobe Illustrator 22.0.1, SVG Export Plug-In . SVG Version: 6.00 Build 0)  -->
<svg version="1.1" id="Layer_1" xmlns="http://www.w3.org/2000/svg" xmlns:xlink="http://www.w3.org/1999/xlink" x="0px" y="0px"
	 width="35px" height="35px" viewBox="0 0 35 35" style="enable-background:new 0 0 35 35;" xml:space="preserve">
<style type="text/css">
	.st0{fill:#FFFFFF;stroke:#000000;stroke-miterlimit:10;}
	.st1{fill:none;stroke:#000000;stroke-miterlimit:10;}
	.st2{font-family:'MyriadPro-Bold';}
	.st3{font-size:10.157px;}
</style>
<title>accelerate</title>
<g>
	<path class="st0" d="M27.7,18.1c0-0.9,0.7-1.6,1.6-1.6c0.9,0,1.6,0.7,1.6,1.6c0,0.9-0.7,1.6-1.6,1.6C28.4,19.8,27.7,19,27.7,18.1z"
		/>
	<polygon points="15.2,25.1 19.5,27.6 15.2,30 	"/>
	<polyline class="st1" points="15.2,27.6 1,27.6 1,5 29.3,5 29.3,16.5 	"/>
	<polyline class="st1" points="12.9,25.5 3.3,25.5 3.3,10.8 27.2,10.8 27.2,15.9 	"/>
	<g>
		<g>
			<g>
				<g>
					<g>
						<path class="st1" d="M21.8,25.4L21.8,25.4C21.8,25.4,21.8,25.4,21.8,25.4C21.8,25.4,21.8,25.5,21.8,25.4L21.8,25.4
							c0,0.3,0,0.5,0.1,0.7l-0.6,0.5c0.1,0.4,0.2,0.7,0.4,1l0.8-0.1c0.3,0.4,0.6,0.7,1,1l-0.1,0.8c0.3,0.2,0.7,0.3,1,0.4l0.5-0.6
							c0.2,0,0.5,0.1,0.7,0.1c0.2,0,0.5,0,0.7-0.1l0.5,0.6c0.4-0.1,0.7-0.2,1-0.4l-0.1-0.8c0.4-0.3,0.7-0.6,1-1l0.8,0.1
							c0.2-0.3,0.3-0.7,0.4-1l-0.6-0.5c0-0.2,0.1-0.4,0.1-0.6h0c0,0,0,0,0,0c0,0,0,0,0,0h0 M27.6,25.4c0,1.2-0.9,2.1-2.1,2.1
							c-1.2,0-2.1-0.9-2.1-2.1"/>
					</g>
				</g>
			</g>
		</g>
		<g>
			<g>
				<g>
					<g>
						<path class="st1" d="M29.3,25.5L29.3,25.5C29.3,25.5,29.3,25.5,29.3,25.5C29.3,25.4,29.3,25.5,29.3,25.5L29.3,25.5
							c0-0.2,0-0.4-0.1-0.6l0.6-0.5c-0.1-0.4-0.2-0.7-0.4-1l-0.8,0.1c-0.3-0.4-0.6-0.7-1-1l0.1-0.8c-0.3-0.2-0.7-0.3-1-0.4l-0.5,0.6
							c-0.2,0-0.5-0.1-0.7-0.1c-0.2,0-0.5,0-0.7,0.1l-0.5-0.6c-0.4,0.1-0.7,0.2-1,0.4l0.1,0.8c-0.4,0.3-0.7,0.6-1,1l-0.8-0.1
							c-0.2,0.3-0.3,0.7-0.4,1l0.6,0.5c0,0.2-0.1,0.4-0.1,0.6h0c0,0,0,0,0,0c0,0,0,0,0,0l0,0 M23.5,25.5c0-1.2,0.9-2.1,2.1-2.1
							c1.2,0,2.1,0.9,2.1,2.1"/>
					</g>
				</g>
			</g>
		</g>
	</g>
	<text transform="matrix(1 0 0 1 7.399 20.6816)" class="st2 st3">&lt;/&gt;</text>
	<path class="st1" d="M5.1,8c0,0.5-0.4,0.9-0.9,0.9C3.7,8.9,3.3,8.5,3.3,8c0-0.5,0.4-0.9,0.9-0.9C4.7,7.1,5.1,7.5,5.1,8z"/>
	<path class="st1" d="M8.4,8c0,0.5-0.4,0.9-0.9,0.9C7,8.9,6.6,8.5,6.6,8c0-0.5,0.4-0.9,0.9-0.9C8,7.1,8.4,7.5,8.4,8z"/>
	<path class="st1" d="M11.8,8c0,0.5-0.4,0.9-0.9,0.9c-0.5,0-0.9-0.4-0.9-0.9c0-0.5,0.4-0.9,0.9-0.9C11.3,7.1,11.8,7.5,11.8,8z"/>
</g>
</svg>
